# xmcd CD database file
#
# Track frame offsets:
#	150
#	10740
#	27275
#	46850
#	67827
#	93017
#	112062
#	130157
#	148142
#	171932
#
# Disc length: 2547 seconds
#
# Revision: 0
# Processed by: cddbd v1.5PL3 Copyright (c) Steve Scherf et al.
# Submitted via: CDex 1.50
#
DISCID=7d09f10a
DTITLE=小泉今日子 - 厚木I.C.
DYEAR=2003
DGENRE=Pop
TTITLE0=厚木
TTITLE1=モクレンの花
TTITLE2=きのみ
TTITLE3=Summer Calling
TTITLE4=Japanese Beauty
TTITLE5=ピアノ
TTITLE6=あの頃と同じ空
TTITLE7=シャボン
TTITLE8=サヨナラCOLOR
TTITLE9=また逢いましょう
EXTD=YEAR: 2003
EXTT0=
EXTT1=
EXTT2=
EXTT3=
EXTT4=
EXTT5=
EXTT6=
EXTT7=
EXTT8=
EXTT9=
PLAYORDER=
